<svg width="129" height="129" viewBox="0 0 129 129" fill="none" xmlns="http://www.w3.org/2000/svg">
<path fill-rule="evenodd" clip-rule="evenodd" d="M96.75 43C96.75 40.8617 97.5994 38.811 99.1115 37.299C100.623 35.7869 102.674 34.9375 104.812 34.9375C106.951 34.9375 109.002 35.7869 110.514 37.299C112.026 38.811 112.875 40.8617 112.875 43V97.5643L104.812 109.658L96.75 97.5643V43ZM104.812 40.3125C104.1 40.3125 103.416 40.5956 102.912 41.0997C102.408 41.6037 102.125 42.2872 102.125 43V95.9357L104.812 99.9669L107.5 95.9357V43C107.5 42.2872 107.217 41.6037 106.713 41.0997C106.209 40.5956 105.525 40.3125 104.812 40.3125Z" fill="white"/>
<path fill-rule="evenodd" clip-rule="evenodd" d="M110.188 53.75H99.4375V48.375H110.188V53.75ZM26.875 21.5C25.4495 21.5 24.0823 22.0663 23.0743 23.0743C22.0663 24.0823 21.5 25.4495 21.5 26.875V102.125C21.5 103.551 22.0663 104.918 23.0743 105.926C24.0823 106.934 25.4495 107.5 26.875 107.5H80.625C82.0505 107.5 83.4177 106.934 84.4257 105.926C85.4337 104.918 86 103.551 86 102.125V26.875C86 25.4495 85.4337 24.0823 84.4257 23.0743C83.4177 22.0663 82.0505 21.5 80.625 21.5H26.875ZM16.125 26.875C16.125 24.0239 17.2576 21.2896 19.2736 19.2736C21.2896 17.2576 24.0239 16.125 26.875 16.125H80.625C83.4761 16.125 86.2104 17.2576 88.2264 19.2736C90.2424 21.2896 91.375 24.0239 91.375 26.875V102.125C91.375 104.976 90.2424 107.71 88.2264 109.726C86.2104 111.742 83.4761 112.875 80.625 112.875H26.875C24.0239 112.875 21.2896 111.742 19.2736 109.726C17.2576 107.71 16.125 104.976 16.125 102.125V26.875Z" fill="white"/>
<path fill-rule="evenodd" clip-rule="evenodd" d="M53.7501 40.3125C53.7501 39.5997 54.0332 38.9162 54.5372 38.4122C55.0412 37.9081 55.7248 37.625 56.4376 37.625H77.9376C78.6503 37.625 79.3339 37.9081 79.8379 38.4122C80.3419 38.9162 80.6251 39.5997 80.6251 40.3125C80.6251 41.0253 80.3419 41.7088 79.8379 42.2128C79.3339 42.7169 78.6503 43 77.9376 43H56.4376C55.7248 43 55.0412 42.7169 54.5372 42.2128C54.0332 41.7088 53.7501 41.0253 53.7501 40.3125ZM53.7501 51.0625C53.7501 50.3497 54.0332 49.6662 54.5372 49.1621C55.0412 48.6581 55.7248 48.375 56.4376 48.375H77.9376C78.6503 48.375 79.3339 48.6581 79.8379 49.1621C80.3419 49.6662 80.6251 50.3497 80.6251 51.0625C80.6251 51.7753 80.3419 52.4588 79.8379 52.9629C79.3339 53.4669 78.6503 53.75 77.9376 53.75H56.4376C55.7248 53.75 55.0412 53.4669 54.5372 52.9629C54.0332 52.4588 53.7501 51.7753 53.7501 51.0625ZM53.7501 75.25C53.7501 74.5372 54.0332 73.8537 54.5372 73.3496C55.0412 72.8456 55.7248 72.5625 56.4376 72.5625H77.9376C78.6503 72.5625 79.3339 72.8456 79.8379 73.3496C80.3419 73.8537 80.6251 74.5372 80.6251 75.25C80.6251 75.9628 80.3419 76.6463 79.8379 77.1504C79.3339 77.6544 78.6503 77.9375 77.9376 77.9375H56.4376C55.7248 77.9375 55.0412 77.6544 54.5372 77.1504C54.0332 76.6463 53.7501 75.9628 53.7501 75.25ZM53.7501 86C53.7501 85.2872 54.0332 84.6037 54.5372 84.0996C55.0412 83.5956 55.7248 83.3125 56.4376 83.3125H77.9376C78.6503 83.3125 79.3339 83.5956 79.8379 84.0996C80.3419 84.6037 80.6251 85.2872 80.6251 86C80.6251 86.7128 80.3419 87.3963 79.8379 87.9004C79.3339 88.4044 78.6503 88.6875 77.9376 88.6875H56.4376C55.7248 88.6875 55.0412 88.4044 54.5372 87.9004C54.0332 87.3963 53.7501 86.7128 53.7501 86ZM32.2501 75.25V83.3125H40.3126V75.25H32.2501ZM29.5626 69.875H43.0001C43.7128 69.875 44.3964 70.1581 44.9004 70.6621C45.4044 71.1662 45.6876 71.8497 45.6876 72.5625V86C45.6876 86.7128 45.4044 87.3963 44.9004 87.9004C44.3964 88.4044 43.7128 88.6875 43.0001 88.6875H29.5626C28.8498 88.6875 28.1662 88.4044 27.6622 87.9004C27.1582 87.3963 26.8751 86.7128 26.8751 86V72.5625C26.8751 71.8497 27.1582 71.1662 27.6622 70.6621C28.1662 70.1581 28.8498 69.875 29.5626 69.875ZM47.5876 38.4124C48.0915 38.9164 48.3745 39.5999 48.3745 40.3125C48.3745 41.0251 48.0915 41.7086 47.5876 42.2126L34.9376 54.8626L27.6625 47.5876C27.4058 47.3397 27.2011 47.0431 27.0602 46.7152C26.9194 46.3873 26.8452 46.0347 26.8421 45.6778C26.839 45.321 26.907 44.9671 27.0422 44.6368C27.1773 44.3065 27.3769 44.0065 27.6292 43.7541C27.8815 43.5018 28.1816 43.3022 28.5119 43.1671C28.8422 43.032 29.196 42.964 29.5529 42.9671C29.9097 42.9702 30.2624 43.0443 30.5903 43.1852C30.9182 43.326 31.2147 43.5308 31.4626 43.7874L34.9376 47.2624L43.7875 38.4124C44.2915 37.9086 44.9749 37.6256 45.6876 37.6256C46.4002 37.6256 47.0837 37.9086 47.5876 38.4124Z" fill="white"/>
</svg>
