<svg width="109" height="109" viewBox="0 0 109 109" fill="none" xmlns="http://www.w3.org/2000/svg">
<path d="M86.2917 9.12872H27.25C21.7727 9.12872 13.625 12.7575 13.625 22.7537V86.3371C13.625 96.3333 21.7727 99.9621 27.25 99.9621H95.375V90.8787H27.3045C25.2063 90.8242 22.7083 89.9931 22.7083 86.3371C22.7083 85.8783 22.7492 85.4696 22.8173 85.0972C23.326 82.4857 25.4651 81.8408 27.3 81.7954H90.8333C90.9151 81.7954 90.9741 81.7545 91.0559 81.75H95.375V18.2121C95.375 13.2026 91.3011 9.12872 86.2917 9.12872ZM86.2917 72.7121H22.7083V22.7537C22.7083 19.0931 25.2062 18.2666 27.25 18.2121H59.0417V50.0037L68.125 45.4621L77.2083 50.0037V18.2121H86.2917V72.7121Z" fill="white"/>
</svg>
